<svg width="40" height="46" viewBox="0 0 40 46" fill="none" xmlns="http://www.w3.org/2000/svg">
<path d="M11.3056 0V5.70613H16.9584V5.87732C7.34865 7.24679 0 15.6348 0 25.6776C0 36.6904 8.87491 45.6491 19.7848 45.6491C30.6947 45.6491 39.5696 36.6904 39.5696 25.6776C39.5696 23.1098 39.0044 20.7133 38.1564 18.5449L33.0124 20.7133C33.6342 22.368 33.9168 23.9658 33.9168 25.7347C33.9168 33.6662 27.6422 40 19.7848 40C11.9274 40 5.65281 33.6662 5.65281 25.7347C5.65281 17.8031 11.9274 11.4693 19.7848 11.4693C21.4807 11.4693 23.12 11.7546 24.7593 12.3823L26.6812 7.01854C25.3811 6.56205 24.0244 6.33381 22.6112 6.10556V5.7632H28.264V0.0570613H11.3056V0ZM39.5696 6.61911C39.5696 6.61911 18.9369 22.6534 17.8629 23.7375C16.7888 24.8787 16.7888 26.5335 17.8629 27.6747C18.9369 28.816 20.6327 28.816 21.7633 27.6747C22.8939 26.5335 39.6262 6.61911 39.6262 6.61911H39.5696Z" fill="#D6F056"/>
</svg>
